<svg width="96" height="96" viewBox="0 0 96 96" fill="none" xmlns="http://www.w3.org/2000/svg">
<path d="M85.64 32L70.84 17.16C70.4662 16.7893 70.023 16.496 69.5356 16.2969C69.0483 16.0979 68.5264 15.997 68 16H28C27.2103 16.0039 26.4394 16.2416 25.7846 16.6829C25.1297 17.1242 24.6201 17.7495 24.32 18.48C24.0137 19.2084 23.93 20.0113 24.0795 20.7873C24.229 21.5632 24.605 22.2775 25.16 22.84L40 37.64V76C40 77.0609 40.4214 78.0783 41.1716 78.8284C41.9217 79.5786 42.9391 80 44 80H84C85.0609 80 86.0783 79.5786 86.8284 78.8284C87.5786 78.0783 88 77.0609 88 76V37.64C87.9911 35.5217 87.1424 33.4934 85.64 32Z" fill="#323847"/>
<path d="M46.84 33.16L30.84 17.16C30.4681 16.7851 30.0257 16.4875 29.5383 16.2844C29.0509 16.0814 28.528 15.9768 28 15.9768C27.472 15.9768 26.9491 16.0814 26.4617 16.2844C25.9743 16.4875 25.5319 16.7851 25.16 17.16L10.36 32C8.85765 33.4934 8.00893 35.5217 8 37.64V76C8 77.0609 8.42143 78.0783 9.17157 78.8284C9.92172 79.5786 10.9391 80 12 80H44C45.0609 80 46.0783 79.5786 46.8284 78.8284C47.5786 78.0783 48 77.0609 48 76V36C48.003 35.4736 47.9021 34.9517 47.7031 34.4644C47.504 33.977 47.2107 33.5338 46.84 33.16Z" fill="#69C647"/>
</svg>
