<svg width="48" height="48" viewBox="0 0 48 48" fill="none" xmlns="http://www.w3.org/2000/svg">
<path d="M0 8C0 3.58172 3.58172 0 8 0H40C44.4183 0 48 3.58172 48 8V40C48 44.4183 44.4183 48 40 48H8C3.58172 48 0 44.4183 0 40V8Z" fill="#FAE8E1"/>
<path d="M36 21.3125L38.6875 23.9375L33.3125 29.3125L30.6875 26.6875L28 29.3125L25.3125 26.6875H24.875C24.5 27.7292 23.9375 28.6458 23.1875 29.4375C22.4792 30.2292 21.6042 30.8542 20.5625 31.3125C19.5625 31.7708 18.4792 32 17.3125 32C15.8542 32 14.5208 31.6458 13.3125 30.9375C12.1042 30.1875 11.125 29.2083 10.375 28C9.66667 26.7917 9.3125 25.4583 9.3125 24C9.3125 22.5417 9.66667 21.2083 10.375 20C11.125 18.7917 12.1042 17.8333 13.3125 17.125C14.5208 16.375 15.8542 16 17.3125 16C18.4792 16 19.5625 16.2292 20.5625 16.6875C21.6042 17.1458 22.4792 17.7708 23.1875 18.5625C23.9375 19.3542 24.5 20.2708 24.875 21.3125H36ZM17.3125 28C18.0625 28 18.7292 27.8333 19.3125 27.5C19.9375 27.125 20.4167 26.6458 20.75 26.0625C21.125 25.4375 21.3125 24.75 21.3125 24C21.3125 23.25 21.125 22.5833 20.75 22C20.4167 21.375 19.9375 20.8958 19.3125 20.5625C18.7292 20.1875 18.0625 20 17.3125 20C16.6042 20 15.9375 20.1875 15.3125 20.5625C14.7292 20.8958 14.25 21.375 13.875 22C13.5 22.5833 13.3125 23.25 13.3125 24C13.3125 24.75 13.5 25.4375 13.875 26.0625C14.25 26.6458 14.7292 27.125 15.3125 27.5C15.9375 27.8333 16.6042 28 17.3125 28Z" fill="#CF6F49"/>
</svg>
