<svg width="48" height="52" viewBox="0 0 48 52" fill="none" xmlns="http://www.w3.org/2000/svg">
<path d="M44.625 23.9375H3.375V50.75H44.625V23.9375Z" stroke="white" stroke-width="2" stroke-miterlimit="10" stroke-linecap="round" stroke-linejoin="round"/>
<path d="M46.6875 13.625H1.3125V23.9375H46.6875V13.625Z" stroke="white" stroke-width="2" stroke-miterlimit="10" stroke-linecap="round" stroke-linejoin="round"/>
<path d="M32.25 13.625H15.75V23.9375H32.25V13.625Z" stroke="white" stroke-width="2" stroke-miterlimit="10" stroke-linecap="round" stroke-linejoin="round"/>
<path d="M30.1875 23.9375H17.8125V50.75H30.1875V23.9375Z" stroke="white" stroke-width="2" stroke-miterlimit="10" stroke-linecap="round" stroke-linejoin="round"/>
<path d="M39.8813 4.13754C37.8188 0.012544 32.0438 0.218794 29.5688 4.55004L24 13.625H33.9C38.6437 13.4188 41.9438 8.26254 39.8813 4.13754Z" stroke="white" stroke-width="2" stroke-miterlimit="10" stroke-linecap="round" stroke-linejoin="round"/>
<path d="M8.11875 4.13754C10.1812 0.012544 15.9562 0.218794 18.4312 4.55004L24 13.625H14.1C9.35625 13.4188 6.05625 8.26254 8.11875 4.13754Z" stroke="white" stroke-width="2" stroke-miterlimit="10" stroke-linecap="round" stroke-linejoin="round"/>
</svg>
