<svg width="48" height="57" viewBox="0 0 48 57" fill="none" xmlns="http://www.w3.org/2000/svg">
<path d="M45.4144 22.6253C43.0873 17.8853 39.2533 14.0513 34.5134 11.7243L34.5021 11.713C34.5021 11.713 36.3241 9.83437 36.9578 9.24589C37.1696 9.03228 37.2877 8.74314 37.286 8.44239C37.2597 8.18338 37.1703 7.93469 37.0257 7.71811L30.9373 0.407409C30.7218 0.148819 30.4024 -0.000564242 30.0658 1.60172e-06H17.9115C17.5788 0.0159867 17.2658 0.162399 17.0401 0.407409L10.963 7.69548C10.8088 7.9071 10.7184 8.15848 10.7027 8.41976C10.7212 8.71626 10.8365 8.99847 11.0309 9.22326L13.4866 11.7243C1.65978 17.5307 -3.22076 31.8252 2.58564 43.652C8.39205 55.4789 22.6865 60.3594 34.5134 54.553C46.3402 48.7467 51.2208 34.4521 45.4144 22.6253ZM30.5412 3.45165L33.7438 7.27675H29.3529L30.5412 3.45165ZM33.4609 9.54013L26.4558 16.6698L28.6626 9.54013H33.4609ZM23.1852 21.5813C23.4022 21.7894 23.6882 21.9103 23.9887 21.9208C24.2858 21.8959 24.5673 21.7769 24.7922 21.5813L28.8097 17.4959C37.4191 20.1616 42.2376 29.3019 39.5719 37.9114C36.9062 46.5209 27.7658 51.3393 19.1564 48.6736C10.5469 46.0079 5.72848 36.8676 8.39417 28.2581C9.9866 23.115 14.0133 19.0883 19.1564 17.4959L23.1852 21.5813ZM21.7253 9.54013H26.2521L23.9887 16.9527L21.7253 9.54013ZM28.5154 2.25206L27.5196 5.45474L25.856 2.26338L28.5154 2.25206ZM25.9239 7.27675H22.0309L23.9887 3.58745L25.9239 7.27675ZM22.1214 2.26338L20.4352 5.46605L19.4619 2.26338H22.1214ZM21.5329 16.6811L16.2253 11.2716L14.5278 9.55145H19.3261L21.5329 16.6811ZM17.4362 3.45165L18.5679 7.27675H14.2449L17.4362 3.45165ZM23.9887 54.7058C12.0696 54.7032 2.40952 45.0388 2.41207 33.1198C2.41391 24.6194 7.4055 16.9118 15.1615 13.4331L17.4249 15.6965C7.82847 19.334 2.99786 30.0624 6.63539 39.6589C10.2729 49.2553 21.0013 54.0859 30.5977 50.4484C40.1942 46.8108 45.0248 36.0825 41.3873 26.486C39.5013 21.5107 35.5731 17.5825 30.5977 15.6965L32.8611 13.4331C43.7364 18.3109 48.5984 31.0811 43.7208 41.9563C40.2353 49.7273 32.5056 54.7218 23.9887 54.7058Z" fill="white"/>
</svg>
